<svg width="45" height="27" viewBox="0 0 45 27" fill="none" xmlns="http://www.w3.org/2000/svg">
<path d="M6.10229 16.422C6.4847 16.422 6.79476 16.7321 6.79476 17.1145V21.9666H7.89648C8.16802 19.5649 10.3351 17.838 12.7368 18.1095C14.7645 18.3387 16.3646 19.9389 16.5939 21.9666H31.0313V1.88494H6.79476V4.06277C6.79476 4.44519 6.4847 4.75524 6.10229 4.75524C5.71987 4.75524 5.40981 4.44519 5.40981 4.06277V1.19247C5.40981 0.810055 5.71987 0.5 6.10229 0.5H31.7238C32.1062 0.5 32.4162 0.810055 32.4162 1.19247V1.88494H40.3464C42.0848 1.8872 43.4935 3.29586 43.4958 5.03431V6.03978C43.4958 6.4222 43.1857 6.73225 42.8033 6.73225H41.998L42.5263 13.0788C43.9091 13.4387 44.8759 14.6849 44.8807 16.1139V21.9666C44.8807 22.3491 44.5707 22.6591 44.1883 22.6591H42.786C42.5962 25.1354 40.4348 26.989 37.9585 26.7991C35.7461 26.6296 33.9881 24.8716 33.8185 22.6591C33.8123 22.6591 33.8074 22.6626 33.8012 22.6626H32.4162C32.4162 23.045 32.1062 23.355 31.7238 23.355H16.5309C16.0376 25.722 13.7189 27.2409 11.3519 26.7476C9.64697 26.3922 8.31482 25.06 7.9595 23.355H6.10229C5.71987 23.355 5.40981 23.045 5.40981 22.6626V17.1145C5.40981 16.732 5.71987 16.422 6.10229 16.422ZM38.3022 25.429C40.0232 25.429 41.4184 24.0338 41.4184 22.3129C41.4184 20.5919 40.0232 19.1968 38.3022 19.1968C36.5813 19.1968 35.1861 20.5919 35.1861 22.3129C35.188 24.0331 36.5821 25.4271 38.3022 25.429ZM32.4162 21.2742H33.8012C33.8418 21.2784 33.8819 21.2865 33.921 21.2984C34.4779 18.8788 36.8908 17.3689 39.3103 17.9258C40.9787 18.3098 42.2841 19.608 42.6773 21.2742H43.4958V16.1139C43.4947 15.1399 42.7053 14.3506 41.7314 14.3494H32.4162V21.2742ZM32.4162 12.9645H41.1275L40.6082 6.73225H32.4162V12.9645ZM32.4162 5.34731H42.1108V5.03431C42.1097 4.06035 41.3204 3.27101 40.3464 3.26989H32.4162V5.34731ZM9.25693 22.6314C9.34591 24.2156 10.6579 25.4538 12.2445 25.4512H12.2452C13.6981 25.448 14.9387 24.4015 15.1868 22.97C15.0655 22.758 15.0793 22.4945 15.2221 22.2963C15.1296 20.649 13.7192 19.3887 12.0719 19.4812C10.4247 19.5737 9.16431 20.9841 9.25693 22.6314Z" fill="#0054D7"/>
<path d="M6.79477 6.03978H16.4894C16.8718 6.03978 17.1819 6.34983 17.1819 6.73225C17.1819 7.11467 16.8718 7.42472 16.4894 7.42472H6.79477C6.41235 7.42472 6.10229 7.11467 6.10229 6.73225C6.10229 6.34983 6.41235 6.03978 6.79477 6.03978Z" fill="#0054D7"/>
<path d="M5.4098 13.657H20.6442C21.0266 13.657 21.3367 13.967 21.3367 14.3494C21.3367 14.7319 21.0266 15.0419 20.6442 15.0419H5.4098C5.02739 15.0419 4.71733 14.7319 4.71733 14.3494C4.71733 13.967 5.02739 13.657 5.4098 13.657Z" fill="#0054D7"/>
<path d="M6.79475 9.50214H14.4119C14.7944 9.50214 15.1044 9.81219 15.1044 10.1946C15.1044 10.577 14.7944 10.8871 14.4119 10.8871H6.79475C6.41233 10.8871 6.10228 10.577 6.10228 10.1946C6.10228 9.81219 6.41233 9.50214 6.79475 9.50214Z" fill="#0054D7"/>
<path d="M4.02487 7.42472H2.63993C2.25751 7.42472 1.94746 7.11467 1.94746 6.73225C1.94746 6.34983 2.25751 6.03978 2.63993 6.03978H4.02487C4.40729 6.03978 4.71735 6.34983 4.71735 6.73225C4.71735 7.11467 4.40729 7.42472 4.02487 7.42472Z" fill="#0054D7"/>
<path d="M1.94746 13.657H3.3324C3.71482 13.657 4.02487 13.967 4.02487 14.3494C4.02487 14.7319 3.71482 15.0419 3.3324 15.0419H1.94746C1.56504 15.0419 1.25498 14.7319 1.25498 14.3494C1.25498 13.967 1.56504 13.657 1.94746 13.657Z" fill="#0054D7"/>
<path d="M1.25498 9.50214H4.02487C4.40729 9.50214 4.71735 9.81219 4.71735 10.1946C4.71735 10.577 4.40729 10.8871 4.02487 10.8871H1.25498C0.872566 10.8871 0.562511 10.577 0.562511 10.1946C0.562511 9.81219 0.872566 9.50214 1.25498 9.50214Z" fill="#0054D7"/>
</svg>
