<svg width="37" height="41" viewBox="0 0 37 41" fill="none" xmlns="http://www.w3.org/2000/svg">
<path d="M24.1792 26.9255C24.2583 26.7968 24.3373 26.6705 24.4164 26.5395C27.9717 20.6534 29.7608 15.5044 29.7351 11.2374C29.7193 8.30165 28.5421 5.4915 26.4608 3.421C24.3795 1.35051 21.5633 0.187998 18.6275 0.1875C15.6917 0.187003 12.8751 1.34856 10.7931 3.41835C8.71106 5.48814 7.53295 8.29789 7.51616 11.2336C7.49016 15.5044 9.27959 20.6541 12.8349 26.5395C12.9139 26.6705 12.993 26.7968 13.072 26.9255C5.5871 27.8505 0.625 30.5256 0.625 33.7017C0.625 37.6892 8.53014 40.8125 18.6255 40.8125C28.7208 40.8125 36.6259 37.6892 36.6259 33.7017C36.6259 30.5256 31.6638 27.8505 24.1792 26.9255ZM8.71391 11.2374C8.70649 9.93086 8.95744 8.63576 9.45234 7.42657C9.94725 6.21739 10.6763 5.11797 11.5977 4.19157C12.519 3.26517 13.6144 2.53006 14.8208 2.02853C16.0273 1.52699 17.321 1.26892 18.6275 1.26917C19.9341 1.26942 21.2277 1.52798 22.4339 2.02997C23.6402 2.53197 24.7353 3.26749 25.6563 4.19424C26.5773 5.12099 27.3059 6.22068 27.8004 7.43006C28.2948 8.63943 28.5453 9.93463 28.5373 11.2411C28.5887 19.7479 20.6356 30.2398 18.6255 32.7558C16.6153 30.2398 8.66189 19.7476 8.71391 11.2374ZM18.6255 39.6148C8.57429 39.6148 1.82275 36.5571 1.82275 33.7017C1.82275 31.1693 6.829 28.8132 13.7777 28.049C15.1216 30.1473 16.588 32.1647 18.1693 34.0904C18.2254 34.1566 18.2953 34.2098 18.3741 34.2463C18.4529 34.2828 18.5386 34.3017 18.6255 34.3017C18.7123 34.3017 18.798 34.2828 18.8768 34.2463C18.9556 34.2098 19.0255 34.1566 19.0816 34.0904C20.663 32.1647 22.1296 30.1473 23.4736 28.049C30.4205 28.8132 35.4285 31.1679 35.4285 33.7017C35.4282 36.5571 28.6766 39.6148 18.6255 39.6148Z" fill="#0054D7"/>
<path d="M13.729 36.1461C11.0714 35.8059 8.93804 35.2071 7.72386 34.4607C7.65686 34.4179 7.58199 34.3888 7.50364 34.3752C7.42528 34.3616 7.345 34.3638 7.26748 34.3816C7.18997 34.3993 7.11677 34.4324 7.05215 34.4787C6.98754 34.5251 6.93281 34.5839 6.89115 34.6516C6.8495 34.7193 6.82175 34.7947 6.80953 34.8733C6.79732 34.9519 6.80087 35.0321 6.82 35.1093C6.83912 35.1865 6.87343 35.2591 6.92092 35.3229C6.9684 35.3867 7.02812 35.4404 7.09659 35.4808C8.45278 36.3145 10.7545 36.9729 13.5771 37.3339C13.6025 37.3372 13.6281 37.3388 13.6537 37.3387C13.8055 37.338 13.9514 37.2796 14.0618 37.1755C14.1722 37.0713 14.239 36.9291 14.2485 36.7776C14.2581 36.6261 14.2098 36.4766 14.1133 36.3594C14.0169 36.2422 13.8795 36.1659 13.729 36.1461Z" fill="#0054D7"/>
<path d="M19.6313 36.4322C18.7966 36.4514 17.9274 36.4469 17.079 36.4158C17.0004 36.4129 16.9219 36.4255 16.8482 36.4529C16.7744 36.4803 16.7067 36.522 16.6491 36.5756C16.5914 36.6291 16.5449 36.6935 16.5121 36.7651C16.4793 36.8366 16.461 36.9139 16.4581 36.9926C16.4552 37.0712 16.4678 37.1497 16.4952 37.2234C16.5226 37.2972 16.5643 37.3648 16.6179 37.4225C16.6714 37.4802 16.7358 37.5267 16.8074 37.5595C16.8789 37.5923 16.9562 37.6106 17.0349 37.6135C17.5612 37.6327 18.0957 37.6426 18.6255 37.6426C18.9739 37.6426 19.3185 37.6385 19.6593 37.6303C19.8181 37.6266 19.9689 37.56 20.0786 37.4451C20.1883 37.3302 20.2478 37.1765 20.2442 37.0177C20.2433 36.9387 20.2267 36.8607 20.1953 36.7882C20.1639 36.7158 20.1182 36.6503 20.0611 36.5958C20.004 36.5412 19.9365 36.4986 19.8627 36.4705C19.7889 36.4424 19.7102 36.4294 19.6313 36.4322Z" fill="#0054D7"/>
<path d="M23.6823 11.2374C23.6822 10.2372 23.3855 9.25946 22.8297 8.42789C22.2739 7.59631 21.484 6.94822 20.5599 6.56556C19.6357 6.18291 18.6189 6.08288 17.6379 6.27812C16.657 6.47336 15.7559 6.9551 15.0487 7.66243C14.3415 8.36976 13.86 9.2709 13.6649 10.2519C13.4699 11.2329 13.5701 12.2497 13.953 13.1738C14.3358 14.0978 14.9841 14.8876 15.8158 15.4432C16.6475 15.9989 17.6252 16.2954 18.6254 16.2953C19.9663 16.2937 21.2517 15.7602 22.1998 14.812C23.1478 13.8638 23.681 12.5782 23.6823 11.2374ZM14.766 11.2374C14.7661 10.4741 14.9926 9.72796 15.4167 9.09336C15.8409 8.45876 16.4437 7.96418 17.149 7.67217C17.8542 7.38016 18.6302 7.30383 19.3788 7.45283C20.1274 7.60182 20.8151 7.96946 21.3548 8.50924C21.8944 9.04903 22.262 9.73673 22.4108 10.4854C22.5597 11.234 22.4832 12.01 22.1911 12.7152C21.8989 13.4204 21.4043 14.0231 20.7696 14.4472C20.1349 14.8712 19.3887 15.0976 18.6254 15.0976C17.6021 15.0965 16.6209 14.6894 15.8973 13.9657C15.1738 13.242 14.7669 12.2608 14.766 11.2374Z" fill="#0054D7"/>
</svg>
