<svg width="130" height="47" viewBox="0 0 130 47" fill="none" xmlns="http://www.w3.org/2000/svg">
<path fill-rule="evenodd" clip-rule="evenodd" d="M22.0721 3.2954C11.7672 3.2954 3.31798 11.7447 3.31798 22.0495C3.31798 32.3544 11.7672 40.8037 22.0721 40.8037H90.6574C92.0672 40.8037 93.5517 41.4801 94.8965 42.1093C94.9579 42.1381 95.0191 42.1667 95.08 42.1953C95.7005 42.4861 96.2945 42.7645 96.8645 42.9803C97.4912 43.2175 98.0583 43.3665 98.5639 43.3765L98.5487 44.1441C97.9146 44.1315 97.2518 43.9477 96.5928 43.6983C95.9936 43.4715 95.3725 43.1803 94.7577 42.892C94.6954 42.8629 94.6332 42.8337 94.5711 42.8047C93.1908 42.1588 91.8655 41.5714 90.6574 41.5714H22.0721C11.3433 41.5714 2.55029 32.7784 2.55029 22.0495C2.55029 11.3207 11.3433 2.52771 22.0721 2.52771H107.561C118.29 2.52771 127.083 11.3207 127.083 22.0495C127.083 32.7784 118.29 41.5714 107.561 41.5714H98.5563V40.8037H107.561C117.866 40.8037 126.315 32.3544 126.315 22.0495C126.315 11.7447 117.866 3.2954 107.561 3.2954H22.0721Z" fill="white"/>
<path fill-rule="evenodd" clip-rule="evenodd" d="M22.072 0.767686C10.3454 0.767686 0.767686 10.3454 0.767686 22.0721C0.767686 33.7987 10.3454 43.3764 22.072 43.3764H90.6348C92.0471 43.3764 93.4977 43.9836 94.827 44.5465L94.877 44.5677C96.2291 45.1404 97.4462 45.6558 98.5337 45.6558V46.4235C97.2872 46.4235 95.9437 45.8538 94.6655 45.3118C94.6195 45.2923 94.5735 45.2728 94.5276 45.2534C93.1657 44.6767 91.863 44.1441 90.6348 44.1441H22.072C9.92139 44.1441 0 34.2227 0 22.0721C0 9.92139 9.92139 0 22.072 0H107.629C119.779 0 129.701 9.92139 129.701 22.0721C129.701 34.2227 119.779 44.1441 107.629 44.1441H98.5337V43.3764H107.629C119.355 43.3764 128.933 33.7987 128.933 22.0721C128.933 10.3454 119.355 0.767686 107.629 0.767686H22.072Z" fill="white"/>
<path fill-rule="evenodd" clip-rule="evenodd" d="M22.0722 5.84557C13.1665 5.84557 5.86827 13.1438 5.86827 22.0495C5.86827 30.9551 13.1665 38.2534 22.0722 38.2534H90.6575C92.0759 38.2534 93.6316 38.933 95.0118 39.5632C95.1122 39.609 95.2118 39.6547 95.3105 39.6999C95.9049 39.9724 96.467 40.2301 96.9923 40.4303C97.6087 40.6652 98.1321 40.8036 98.5564 40.8036V41.5713C97.9877 41.5713 97.3572 41.3909 96.7189 41.1477C96.168 40.9377 95.5795 40.6679 94.9871 40.3962C94.8891 40.3513 94.791 40.3063 94.6929 40.2615C93.2803 39.6165 91.8795 39.0211 90.6575 39.0211H22.0722C12.7426 39.0211 5.10059 31.3791 5.10059 22.0495C5.10059 12.7199 12.7426 5.07788 22.0722 5.07788H107.606C116.936 5.07788 124.578 12.7199 124.578 22.0495C124.578 31.3791 116.936 39.0211 107.606 39.0211H98.5564V38.2534H107.606C116.512 38.2534 123.81 30.9551 123.81 22.0495C123.81 13.1438 116.512 5.84557 107.606 5.84557H22.0722Z" fill="white"/>
<path d="M108.193 20.6728C108.193 21.4627 107.629 21.8012 106.749 21.8012H105.53V19.5218H106.749C107.629 19.5218 108.193 19.8604 108.193 20.6728ZM101.716 16.3848V27.985H105.552V24.9608H106.794C109.75 24.9608 112.007 23.9227 112.007 20.6728C112.007 17.4004 109.75 16.3848 106.794 16.3848H101.716ZM90.6799 16.8136V20.0409C91.3795 19.567 92.5079 19.251 93.5461 19.251C94.9227 19.2736 96.0737 19.567 96.5702 20.718H92.3499V23.6293H96.5928C96.1414 24.7577 94.9453 25.0737 93.5686 25.0737C92.4628 25.0737 91.3344 24.8028 90.6799 24.2612V27.5562C91.718 28.0301 92.8464 28.2558 93.9974 28.2558C97.2698 28.2558 100.452 26.5406 100.452 22.2977C100.475 17.8969 97.2924 16.114 94.1103 16.114C92.8916 16.114 91.6954 16.3397 90.6799 16.8136ZM79.8245 16.3848V19.725H82.9389V27.985H86.753V19.725H89.8674V16.3848H79.8245ZM69.2399 22.2977C69.2399 26.518 72.3995 28.2558 75.6945 28.2558C76.9132 28.2558 78.0642 28.0301 79.1023 27.5562V24.0581C78.5155 24.5997 77.3871 24.8931 76.191 24.8931C74.6563 24.8931 73.1668 24.1258 73.1668 22.2977C73.1668 20.2215 74.6789 19.4316 76.2587 19.4316C77.2968 19.4316 78.3575 19.7701 78.9895 20.2215V16.8136C77.9513 16.3397 76.7778 16.114 75.5816 16.114C72.4221 16.114 69.2399 17.8969 69.2399 22.2977ZM67.9535 27.985V16.3848H64.7262L60.7993 21.8464C60.8896 21.1468 60.8896 20.4923 60.8896 19.8604V16.3848H57.053V27.985H60.2803L64.2072 22.546C64.1169 23.2456 64.1169 23.9001 64.1169 24.5094V27.985H67.9535ZM46.3782 16.3848C46.175 19.409 46.2879 23.8324 44.7758 24.532C44.4373 24.7351 44.0311 24.7577 43.6248 24.6223V27.9398C44.1665 28.0978 44.7532 28.1881 45.3626 28.1881C48.8832 28.1881 49.5603 23.9001 49.8763 19.725H51.4786V27.985H55.3152V16.3848H46.3782ZM39.4948 22.1849C39.4948 23.7873 38.6372 24.7803 37.1477 24.7803C35.6582 24.7803 34.8006 23.7647 34.8006 22.1849C34.8006 20.5826 35.6582 19.5895 37.1477 19.5895C38.6146 19.5895 39.4948 20.5826 39.4948 22.1849ZM30.8511 22.1849C30.8511 25.525 32.95 28.2558 37.1251 28.2558C41.3003 28.2558 43.3991 25.525 43.3991 22.1849C43.3991 18.8448 41.3003 16.114 37.1251 16.114C32.95 16.114 30.8511 18.8448 30.8511 22.1849ZM22.5008 27.985V19.725H25.7507V27.985H29.5647V16.3848H18.6868V27.985H22.5008Z" fill="#FBD826"/>
</svg>
