<svg xmlns="http://www.w3.org/2000/svg"><symbol id="basket" viewBox="0 0 28 26"><path d="M11 25a1.143 1.143 0 1 0 0-2.286A1.143 1.143 0 0 0 11 25zM23.572 25a1.143 1.143 0 1 0 0-2.286 1.143 1.143 0 0 0 0 2.286zM1.857 1H6.43L9.49 16.303a2.286 2.286 0 0 0 2.286 1.84h11.109a2.286 2.286 0 0 0 2.286-1.84L27 6.714H7.571" stroke="#3A426D" stroke-width="2" stroke-linecap="round" stroke-linejoin="round"/></symbol><symbol id="facebook-th" viewBox="0 0 49.652 49.652"><path d="M24.826 0C11.137 0 0 11.137 0 24.826c0 13.688 11.137 24.826 24.826 24.826 13.688 0 24.826-11.138 24.826-24.826C49.652 11.137 38.516 0 24.826 0zM31 25.7h-4.039v14.396h-5.985V25.7h-2.845v-5.088h2.845v-3.291c0-2.357 1.12-6.04 6.04-6.04l4.435.017v4.939h-3.219c-.524 0-1.269.262-1.269 1.386v2.99h4.56L31 25.7z"/></symbol><symbol id="icon-arrow-right" viewBox="0 0 9 10"><path d="M8.424 5.424a.6.6 0 0 0 0-.848L4.606.757a.6.6 0 0 0-.849.849L7.151 5 3.757 8.394a.6.6 0 0 0 .849.849l3.818-3.819zM0 5.6h8V4.4H0v1.2z" fill="#0054D7"/></symbol><symbol id="icon-email" viewBox="0 0 20 15"><path d="M.417 1.217c2.745 2.325 7.561 6.414 8.977 7.69.19.172.394.26.605.26.212 0 .415-.087.605-.259 1.417-1.276 6.233-5.366 8.978-7.691a.416.416 0 0 0 .059-.575A1.655 1.655 0 0 0 18.333 0H1.666C1.156 0 .678.234.358.642a.416.416 0 0 0 .059.575zM19.758 2.477a.415.415 0 0 0-.444.06 1199.012 1199.012 0 0 0-5.953 5.074.416.416 0 0 0 .012.641c1.66 1.33 4.16 3.158 5.967 4.458a.416.416 0 0 0 .66-.339V2.855a.416.416 0 0 0-.242-.378zM.66 12.71c1.807-1.3 4.308-3.129 5.968-4.458a.416.416 0 0 0 .011-.641C4.853 6.074 2.484 4.06.686 2.537A.417.417 0 0 0 0 2.855v9.516a.417.417 0 0 0 .66.338z" fill="#0054D7"/><path d="M19.49 13.843c-1.744-1.248-4.958-3.575-6.876-5.131a.418.418 0 0 0-.536.01 87.52 87.52 0 0 0-.915.805c-.686.62-1.638.62-2.326 0a72.26 72.26 0 0 0-.914-.806.415.415 0 0 0-.536-.01C5.476 10.264 2.26 12.594.512 13.844a.418.418 0 0 0-.063.623c.315.34.76.534 1.218.534h16.667c.459 0 .902-.194 1.219-.534a.417.417 0 0 0-.063-.623z" fill="#0054D7"/></symbol><symbol id="icon-phone" viewBox="0 0 18 18"><path d="M16.579 11.852c-1.11 0-2.198-.174-3.229-.514-.503-.173-1.074-.04-1.405.298l-2.043 1.543c-2.345-1.252-3.845-2.751-5.08-5.079l1.502-1.995c.378-.378.513-.931.351-1.45a10.287 10.287 0 0 1-.517-3.234C6.158.638 5.52 0 4.737 0H1.42C.638 0 0 .638 0 1.421 0 10.562 7.438 18 16.579 18c.783 0 1.421-.638 1.421-1.421v-3.306c0-.784-.638-1.421-1.421-1.421z"/></symbol><symbol id="icon-point" viewBox="0 0 14 20"><path d="M6.667 0A6.674 6.674 0 0 0 0 6.667a6.68 6.68 0 0 0 .8 3.168l5.502 9.95a.416.416 0 0 0 .73 0l5.503-9.953a6.678 6.678 0 0 0 .798-3.165A6.674 6.674 0 0 0 6.667 0zm0 10a3.337 3.337 0 0 1-3.334-3.333 3.337 3.337 0 0 1 3.334-3.334A3.337 3.337 0 0 1 10 6.667 3.337 3.337 0 0 1 6.667 10z" fill="#0054D7"/></symbol><symbol id="icon-serch" viewBox="0 0 17 17"><path d="M7.667 14.333A6.667 6.667 0 1 0 7.667 1a6.667 6.667 0 0 0 0 13.333zM16 16l-3.625-3.625" stroke="#3A426D" stroke-width="2" stroke-linecap="round" stroke-linejoin="round"/></symbol><symbol id="icon-user" viewBox="0 0 25 25"><path d="M16.62 12.967a7.14 7.14 0 1 0-8.25 0A11.621 11.621 0 0 0 0 24.107.893.893 0 0 0 .892 25h23.205a.892.892 0 0 0 .892-.892 11.621 11.621 0 0 0-8.369-11.14zM7.14 7.15a5.355 5.355 0 1 1 5.355 5.355A5.36 5.36 0 0 1 7.14 7.15zM1.825 23.215a9.83 9.83 0 0 1 9.777-8.925h1.785a9.83 9.83 0 0 1 9.777 8.925H1.825z" fill="#3A426D"/></symbol><symbol id="icon-whatapp" viewBox="0 0 22 22"><path d="M15.344 12.711c-.037-.018-1.44-.709-1.69-.799a.972.972 0 0 0-.327-.072c-.19 0-.349.095-.473.28-.14.209-.564.705-.695.853-.018.02-.04.043-.055.043-.012 0-.23-.09-.295-.118-1.506-.654-2.648-2.227-2.805-2.492-.023-.038-.023-.055-.024-.055a.452.452 0 0 1 .083-.098c.076-.075.159-.175.239-.271l.113-.135c.116-.135.168-.24.228-.362l.032-.063a.654.654 0 0 0-.02-.616C9.623 8.74 9.03 7.31 8.968 7.16c-.152-.362-.352-.531-.63-.531l-.108.004c-.132.006-.85.1-1.167.3-.337.213-.906.89-.906 2.079 0 1.07.68 2.081.97 2.466l.04.057c1.118 1.631 2.51 2.84 3.922 3.404 1.36.543 2.003.606 2.369.606.153 0 .276-.012.385-.023l.069-.006c.47-.042 1.501-.577 1.736-1.229.185-.513.233-1.075.11-1.278-.084-.139-.229-.208-.413-.297z" fill="#0054D7"/><path d="M11.195 0C5.237 0 .39 4.811.39 10.725c0 1.912.511 3.784 1.481 5.423L.015 21.623a.286.286 0 0 0 .357.364l5.709-1.814a10.88 10.88 0 0 0 5.114 1.275c5.958 0 10.805-4.81 10.805-10.723C22 4.81 17.153 0 11.195 0zm0 19.214a8.56 8.56 0 0 1-4.71-1.404.286.286 0 0 0-.243-.034l-2.86.91.924-2.724a.286.286 0 0 0-.04-.26 8.374 8.374 0 0 1-1.63-4.977c0-4.682 3.84-8.491 8.56-8.491 4.718 0 8.557 3.809 8.557 8.49 0 4.682-3.839 8.49-8.558 8.49z" fill="#0054D7"/></symbol><symbol id="instagram-th" viewBox="0 0 89.758 89.758"><path d="M58.255 23.88H31.503c-4.27 0-7.744 3.474-7.744 7.744v26.752c0 4.27 3.474 7.745 7.744 7.745h26.752c4.27 0 7.745-3.474 7.745-7.745V31.624c0-4.27-3.474-7.744-7.745-7.744zM44.879 58.906c-7.667 0-13.905-6.238-13.905-13.906 0-7.667 6.238-13.905 13.905-13.905 7.668 0 13.906 6.238 13.906 13.905 0 7.667-6.239 13.906-13.906 13.906zM59.232 33.97a3.294 3.294 0 0 1-3.291-3.29 3.294 3.294 0 0 1 3.291-3.29 3.294 3.294 0 0 1 3.29 3.29 3.294 3.294 0 0 1-3.29 3.29z"/><path d="M44.879 36.971c-4.426 0-8.03 3.602-8.03 8.028 0 4.428 3.604 8.031 8.03 8.031 4.428 0 8.029-3.603 8.029-8.031 0-4.425-3.602-8.028-8.029-8.028z"/><path d="M44.879 0C20.094 0 0 20.094 0 44.879c0 24.785 20.094 44.879 44.879 44.879 24.785 0 44.879-20.094 44.879-44.879C89.758 20.094 69.664 0 44.879 0zm26.996 58.376c0 7.511-6.109 13.62-13.62 13.62H31.503c-7.51 0-13.62-6.109-13.62-13.62V31.624c0-7.51 6.11-13.62 13.62-13.62h26.752c7.511 0 13.62 6.11 13.62 13.62v26.752z"/></symbol><symbol id="vk-th" viewBox="0 0 97.75 97.75"><path d="M48.875 0C21.883 0 0 21.882 0 48.875S21.883 97.75 48.875 97.75 97.75 75.868 97.75 48.875 75.867 0 48.875 0zm24.792 54.161c2.278 2.225 4.688 4.319 6.733 6.774.906 1.086 1.76 2.209 2.41 3.472.928 1.801.09 3.776-1.522 3.883l-10.013-.002c-2.586.214-4.644-.829-6.379-2.597-1.385-1.409-2.67-2.914-4.004-4.371-.545-.598-1.119-1.161-1.803-1.604-1.365-.888-2.551-.616-3.333.81-.797 1.451-.979 3.059-1.055 4.674-.109 2.361-.821 2.978-3.19 3.089-5.062.237-9.865-.531-14.329-3.083-3.938-2.251-6.986-5.428-9.642-9.025-5.172-7.012-9.133-14.708-12.692-22.625-.801-1.783-.215-2.737 1.752-2.774 3.268-.063 6.536-.055 9.804-.003 1.33.021 2.21.782 2.721 2.037 1.766 4.345 3.931 8.479 6.644 12.313.723 1.021 1.461 2.039 2.512 2.76 1.16.796 2.044.533 2.591-.762.35-.823.501-1.703.577-2.585.26-3.021.291-6.041-.159-9.05-.28-1.883-1.339-3.099-3.216-3.455-.956-.181-.816-.535-.351-1.081.807-.944 1.563-1.528 3.074-1.528l11.313-.002c1.783.35 2.183 1.15 2.425 2.946l.01 12.572c-.021.695.349 2.755 1.597 3.21 1 .33 1.66-.472 2.258-1.105 2.713-2.879 4.646-6.277 6.377-9.794.764-1.551 1.423-3.156 2.063-4.764.476-1.189 1.216-1.774 2.558-1.754l10.894.013c.321 0 .647.003.965.058 1.836.314 2.339 1.104 1.771 2.895-.894 2.814-2.631 5.158-4.329 7.508-1.82 2.516-3.761 4.944-5.563 7.471-1.656 2.31-1.525 3.473.531 5.479z"/></symbol></svg>