<svg width="22" height="22" viewBox="0 0 22 22" fill="none" xmlns="http://www.w3.org/2000/svg">
<path d="M15.3441 12.7112C15.3066 12.6932 13.9033 12.0022 13.6539 11.9124C13.5521 11.8759 13.443 11.8402 13.327 11.8402C13.1375 11.8402 12.9783 11.9346 12.8543 12.1201C12.7141 12.3285 12.2898 12.8246 12.1586 12.9727C12.1415 12.9923 12.1181 13.0157 12.1041 13.0157C12.0916 13.0157 11.8744 12.9262 11.8086 12.8977C10.3032 12.2437 9.16051 10.6712 9.00383 10.406C8.98145 10.3679 8.98051 10.3506 8.98033 10.3506C8.98583 10.3304 9.03645 10.2796 9.06258 10.2534C9.13901 10.1778 9.22183 10.0781 9.30195 9.98168C9.33989 9.936 9.37789 9.89024 9.4152 9.84712C9.53145 9.71187 9.5832 9.60687 9.6432 9.48524L9.67464 9.42206C9.82114 9.13099 9.69601 8.88537 9.65558 8.80606C9.62239 8.73968 9.02983 7.30956 8.96683 7.15931C8.81533 6.79674 8.61514 6.62793 8.33695 6.62793C8.31114 6.62793 8.33695 6.62793 8.2287 6.63249C8.09689 6.63805 7.37908 6.73255 7.0617 6.93262C6.72514 7.14481 6.15576 7.82118 6.15576 9.01068C6.15576 10.0812 6.83514 11.0921 7.12683 11.4765C7.13408 11.4862 7.14739 11.5059 7.1667 11.5341C8.28376 13.1655 9.67633 14.3745 11.088 14.9384C12.4471 15.4813 13.0906 15.5441 13.4565 15.5441C13.4566 15.5441 13.4566 15.5441 13.4566 15.5441C13.6103 15.5441 13.7334 15.532 13.842 15.5213L13.9108 15.5148C14.3803 15.4731 15.4121 14.9385 15.6468 14.2863C15.8316 13.7726 15.8804 13.2114 15.7574 13.0077C15.6731 12.8692 15.528 12.7995 15.3441 12.7112Z" fill="#0054D7"/>
<path d="M11.1953 0C5.23699 0 0.389555 4.811 0.389555 10.7245C0.389555 12.6371 0.901413 14.5094 1.87106 16.1479L0.0151263 21.6226C-0.0194452 21.7246 0.00626913 21.8375 0.0817692 21.9144C0.136269 21.97 0.210198 22 0.285698 22C0.314627 22 0.343769 21.9956 0.372198 21.9866L6.08077 20.1726C7.64292 21.0072 9.40849 21.4478 11.1953 21.4478C17.1531 21.4479 22 16.6374 22 10.7245C22 4.811 17.1531 0 11.1953 0ZM11.1953 19.2139C9.51392 19.2139 7.88542 18.7284 6.48556 17.8098C6.43849 17.7789 6.38385 17.763 6.32885 17.763C6.29977 17.763 6.27063 17.7674 6.24227 17.7764L3.38263 18.6854L4.30577 15.9619C4.33563 15.8738 4.3207 15.7766 4.2657 15.7014C3.1997 14.2449 2.6362 12.5239 2.6362 10.7245C2.6362 6.04286 6.47577 2.234 11.1952 2.234C15.9141 2.234 19.7532 6.04286 19.7532 10.7245C19.7533 15.4056 15.9142 19.2139 11.1953 19.2139Z" fill="#0054D7"/>
</svg>
