<svg width="20" height="15" viewBox="0 0 20 15" fill="none" xmlns="http://www.w3.org/2000/svg">
<path d="M0.416966 1.21703C3.16189 3.54168 7.97837 7.63145 9.394 8.90664C9.58404 9.07875 9.78786 9.16625 9.99947 9.16625C10.2106 9.16625 10.4141 9.07957 10.6037 8.90828C12.0206 7.63184 16.837 3.54168 19.582 1.21703C19.7529 1.07258 19.779 0.818672 19.6406 0.64207C19.3208 0.233984 18.8439 0 18.3328 0H1.66615C1.15509 0 0.678177 0.233985 0.358372 0.64211C0.220013 0.818672 0.246067 1.07258 0.416966 1.21703Z" fill="#0054D7"/>
<path d="M19.7581 2.47732C19.6104 2.40857 19.4367 2.43256 19.3138 2.53756C17.5161 4.06138 15.1475 6.07474 13.3612 7.61119C13.2672 7.69178 13.2143 7.81017 13.2164 7.93428C13.2184 8.05799 13.2758 8.17474 13.3726 8.25205C15.0324 9.58138 17.5336 11.41 19.3398 12.7097C19.4118 12.7617 19.4973 12.7882 19.5831 12.7882C19.6483 12.7882 19.7133 12.7731 19.7732 12.7422C19.9124 12.671 19.9998 12.5278 19.9998 12.3715V2.85533C19.9998 2.69299 19.9054 2.54529 19.7581 2.47732Z" fill="#0054D7"/>
<path d="M0.66 12.7093C2.46664 11.4097 4.96828 9.58106 6.62762 8.25169C6.72445 8.17439 6.78184 8.05759 6.78387 7.93392C6.7859 7.80981 6.73301 7.69142 6.63902 7.61083C4.8527 6.07438 2.48371 4.06103 0.686055 2.5372C0.562344 2.4322 0.388203 2.40903 0.241719 2.47696C0.0944141 2.54493 0 2.69263 0 2.85497V12.3712C0 12.5274 0.0875 12.6707 0.226641 12.7419C0.286445 12.7728 0.351562 12.7879 0.41668 12.7879C0.502539 12.7879 0.587969 12.7614 0.66 12.7093Z" fill="#0054D7"/>
<path d="M19.4899 13.8432C17.7455 12.5952 14.5322 10.2685 12.6141 8.7117C12.4578 8.58435 12.2316 8.58841 12.0778 8.72107C11.7014 9.04943 11.3864 9.32615 11.163 9.52713C10.477 10.1464 9.52484 10.1464 8.83719 9.52631C8.61461 9.32572 8.29969 9.04818 7.92328 8.72103C7.7707 8.58755 7.54406 8.58349 7.38738 8.71166C5.47574 10.2632 2.25879 12.5927 0.511562 13.8431C0.414296 13.9131 0.35164 14.0209 0.339453 14.1401C0.327656 14.2594 0.367109 14.3778 0.448906 14.4657C0.764296 14.8055 1.20863 15.0004 1.66723 15.0004H18.3339C18.7925 15.0004 19.2364 14.8055 19.5526 14.4657C19.6339 14.3782 19.6738 14.2598 19.662 14.1406C19.6498 14.0214 19.5871 13.9132 19.4899 13.8432Z" fill="#0054D7"/>
</svg>
