<svg width="37" height="41" viewBox="0 0 37 41" fill="none" xmlns="http://www.w3.org/2000/svg">
<path d="M25.1726 10.9342H5.71787C5.38779 10.9342 5.12024 11.2017 5.12024 11.5318C5.12024 11.8619 5.38779 12.1294 5.71787 12.1294H25.1727C25.5027 12.1294 25.7703 11.8619 25.7703 11.5318C25.7703 11.2017 25.5027 10.9342 25.1726 10.9342Z" fill="#0054D7"/>
<path d="M5.71787 7.98386H15.4452C15.7753 7.98386 16.0428 7.7163 16.0428 7.38622C16.0428 7.05614 15.7753 6.78859 15.4452 6.78859H5.71787C5.38779 6.78859 5.12024 7.05614 5.12024 7.38622C5.12024 7.71638 5.38779 7.98386 5.71787 7.98386Z" fill="#0054D7"/>
<path d="M25.1726 14.6072H5.71787C5.38779 14.6072 5.12024 14.8748 5.12024 15.2049C5.12024 15.535 5.38779 15.8025 5.71787 15.8025H25.1727C25.5027 15.8025 25.7703 15.535 25.7703 15.2049C25.7702 14.8748 25.5027 14.6072 25.1726 14.6072Z" fill="#0054D7"/>
<path d="M10.1496 36.4727H3.92354C2.90165 36.4727 2.07019 35.6413 2.07019 34.6194V3.04855C2.07019 2.02665 2.90165 1.19519 3.92354 1.19519H21.8601C21.9181 1.19519 21.9751 1.2005 22.0315 1.20812V4.93531C22.0315 6.61633 23.3991 7.98385 25.0801 7.98385H28.8072C28.8149 8.04035 28.8201 8.0974 28.8201 8.15532V18.3323C28.8201 18.6624 29.0877 18.9299 29.4177 18.9299C29.7478 18.9299 30.0154 18.6624 30.0154 18.3323V8.1554C30.0154 7.49984 29.76 6.88349 29.2965 6.41987L23.5955 0.718873C23.132 0.255335 22.5157 0 21.8601 0H3.92354C2.24252 0 0.875 1.3676 0.875 3.04855V34.6194C0.875 36.3004 2.2426 37.6679 3.92354 37.6679H10.1496C10.4796 37.6679 10.7472 37.4004 10.7472 37.0703C10.7472 36.7402 10.4796 36.4727 10.1496 36.4727ZM27.975 6.78867H25.0801C24.0583 6.78867 23.2268 5.9572 23.2268 4.93531V2.04046L27.975 6.78867Z" fill="#0054D7"/>
<path d="M36.7574 29.2571L31.6937 20.71C31.3247 20.0868 30.5216 19.8808 29.8981 20.2502L28.6664 20.9799C27.7103 21.5463 27.3062 22.6924 27.6345 23.7081C27.2195 23.8585 26.7645 23.8561 26.3456 23.6942C25.3731 23.3882 24.6338 22.7727 23.4127 23.0815C21.3394 23.6094 21.4024 23.583 21.2149 23.6473C20.0009 22.9561 19.2711 22.7504 17.9824 23.249L16.8336 23.6931C16.3018 23.8986 15.7157 23.8498 15.2242 23.5586L14.9107 23.3738C15.0637 22.4572 14.6572 21.4899 13.7965 20.9801C13.7965 20.9801 13.7965 20.9801 13.7964 20.98L12.5648 20.2503C11.9431 19.8821 11.1375 20.0882 10.7692 20.71L5.70536 29.2572C5.33632 29.8802 5.54167 30.6836 6.16501 31.0528L7.39661 31.7824C7.7693 32.0033 8.17888 32.1082 8.58355 32.1082C9.03479 32.1082 9.47968 31.9775 9.86006 31.7312L10.1167 31.8827L9.57482 32.6375C8.92902 33.5371 9.13421 34.7881 10.034 35.4339C10.4501 35.7326 10.9728 35.869 11.5134 35.7841C11.5992 36.2855 11.8739 36.7547 12.3187 37.0742C12.7364 37.3741 13.2568 37.5107 13.7983 37.4254C13.8843 37.9263 14.1589 38.3952 14.6034 38.7144C15.2009 39.1433 15.9437 39.1929 16.5627 38.9285C16.6982 39.2803 16.9336 39.598 17.262 39.8338C18.1196 40.4493 19.3009 40.2888 19.9672 39.4914L21.4073 40.3445C22.3597 40.9089 23.5886 40.5952 24.1533 39.6417C24.2977 39.398 24.3873 39.1323 24.42 38.8593L24.4233 38.8613C25.3742 39.4245 26.6058 39.1092 27.1692 38.1584C27.3323 37.883 27.4218 37.5843 27.4435 37.2849C28.2817 37.4957 29.1952 37.1436 29.6578 36.3628C29.8096 36.1067 29.8976 35.83 29.9265 35.5516C30.8249 35.9041 31.8749 35.5634 32.3822 34.7071C32.6551 34.2465 32.7323 33.7073 32.5995 33.1886C32.5236 32.8919 32.384 32.6225 32.1923 32.395L32.986 31.9312C33.6575 32.2069 34.4239 32.1627 35.0661 31.7824L36.2975 31.0527C36.9209 30.6837 37.1268 29.8805 36.7574 29.2571ZM8.00583 30.7542L6.77423 30.0245C6.71948 29.992 6.70131 29.9211 6.73368 29.8663L11.7975 21.3189C11.8301 21.264 11.9013 21.2461 11.9557 21.2785L13.1873 22.0081C13.7345 22.3324 13.9058 23.0342 13.5874 23.5715L9.56926 30.354C9.24855 30.8954 8.54729 31.0748 8.00583 30.7542ZM10.731 34.463C10.368 34.2024 10.285 33.6976 10.5458 33.3345L11.3423 32.225C11.5961 31.8715 12.1017 31.7747 12.4708 32.0397C12.833 32.2997 12.9161 32.8058 12.6561 33.1681L11.8595 34.2776C11.5995 34.64 11.093 34.7228 10.731 34.463ZM13.0157 36.1033C12.6535 35.8432 12.5704 35.3369 12.8305 34.9748L13.627 33.8653C13.627 33.8653 13.627 33.8653 13.627 33.8652C13.627 33.8652 13.627 33.8651 13.6271 33.8651L14.5062 32.6406C14.6322 32.4652 14.8189 32.3492 15.032 32.3143C15.0763 32.307 15.1206 32.3034 15.1646 32.3034C15.3324 32.3034 15.4956 32.3556 15.6346 32.4554C15.81 32.5814 15.926 32.768 15.9609 32.9811C15.9959 33.1943 15.9458 33.4083 15.8198 33.5837L14.1441 35.9179C13.8837 36.281 13.3788 36.364 13.0157 36.1033ZM15.3005 37.7435C14.9384 37.4835 14.8553 36.9776 15.1148 36.6155C15.1149 36.6153 15.1151 36.6152 15.1151 36.615L16.7908 34.2809C17.0507 33.9187 17.5572 33.8356 17.9193 34.0955C18.2815 34.3555 18.3646 34.8618 18.1046 35.224L17.3601 36.2611C17.3601 36.2611 17.3601 36.2611 17.36 36.2612L16.4289 37.5582C16.1689 37.9204 15.6628 38.0036 15.3005 37.7435ZM17.9591 38.8629C17.5971 38.6029 17.5138 38.0973 17.7732 37.735L18.3309 36.9582C18.5909 36.596 19.0973 36.5131 19.4594 36.773C19.8215 37.0329 19.9047 37.5392 19.6447 37.9014L19.0874 38.6775C18.8275 39.0398 18.3211 39.123 17.9591 38.8629ZM31.3541 34.098C31.1267 34.4818 30.6297 34.6091 30.2458 34.3817C29.5958 33.9967 25.4029 31.5126 24.9558 31.2477C24.6718 31.0795 24.3053 31.1732 24.1371 31.4572C23.9689 31.7412 24.0626 32.1078 24.3465 32.276L28.3458 34.6453L28.3459 34.6454C28.7299 34.8728 28.8579 35.3683 28.6296 35.7538C28.4022 36.1377 27.9049 36.2648 27.5212 36.0376C26.042 35.1613 24.841 34.4497 23.5198 33.667C23.2356 33.4988 22.8692 33.5925 22.701 33.8765C22.5328 34.1604 22.6265 34.527 22.9105 34.6952L25.8572 36.441L25.8579 36.4414C26.242 36.6695 26.3688 37.1648 26.141 37.5495C25.9136 37.9334 25.4164 38.0606 25.0325 37.8332L23.4511 36.8964C23.4509 36.8963 23.4507 36.8962 23.4505 36.896C23.4503 36.896 23.4502 36.8959 23.45 36.8958L22.2959 36.212C22.0119 36.0437 21.6454 36.1374 21.4772 36.4215C21.309 36.7055 21.4027 37.072 21.6866 37.2402L22.841 37.9241C22.8411 37.9242 22.8413 37.9244 22.8414 37.9244C23.2254 38.1518 23.3535 38.6473 23.1252 39.0327C22.8977 39.4167 22.4006 39.5439 22.0166 39.3165L20.6701 38.5188C21.2473 37.6281 21.0278 36.4277 20.1565 35.8023C19.9006 35.6187 19.6156 35.5044 19.3242 35.4553C19.6333 34.6287 19.3668 33.6637 18.6163 33.125C18.1719 32.8058 17.6399 32.6956 17.1378 32.7743C17.0485 32.2519 16.7628 31.7942 16.3317 31.4848C15.5209 30.903 14.4191 31.0148 13.7386 31.7033C13.6003 31.4604 13.4094 31.2425 13.1678 31.0691C12.4941 30.5856 11.6194 30.5811 10.9524 30.9883L10.6786 30.8267L14.4372 24.4823L14.6161 24.5878C15.4064 25.056 16.3708 25.1536 17.2645 24.8079L18.4133 24.3638C19.0707 24.1098 19.4332 24.0932 20.0835 24.4C19.658 24.878 19.4054 25.5055 19.4054 26.1819V28.8316C19.4054 29.5354 19.9776 30.1084 20.6809 30.1089H20.6826C21.388 30.1089 22.0513 29.8343 22.5503 29.3356C22.8412 29.0449 23.0559 28.6983 23.1846 28.3199C23.9562 28.7769 30.3314 32.5521 31.0706 32.99C31.2565 33.1001 31.3883 33.276 31.4419 33.4854C31.4955 33.6944 31.4643 33.9121 31.3541 34.098ZM35.6886 30.0245L34.457 30.7542C33.9155 31.0748 33.2142 30.8952 32.8937 30.3541L31.0103 27.1751C30.842 26.8911 30.4753 26.7974 30.1916 26.9654C29.9076 27.1336 29.8138 27.5002 29.9819 27.7842L31.8653 30.9633C31.9007 31.0231 31.9392 31.08 31.9791 31.1355L31.4555 31.4413C31.3496 31.504 31.2478 31.573 31.1505 31.648L23.0316 26.8401C22.6338 26.6046 22.1295 26.8916 22.1295 27.3542C22.1232 27.3899 22.1912 28.0042 21.7054 28.4899C21.4321 28.7629 21.0689 28.9134 20.6825 28.9134C20.6822 28.9134 20.6819 28.9134 20.6816 28.9134C20.6369 28.9134 20.6006 28.8766 20.6006 28.8313V26.1816C20.6006 25.4894 21.0768 24.9054 21.7208 24.7423L23.7058 24.24C24.426 24.058 24.8331 24.4426 25.9115 24.8075C26.6601 25.0972 27.4741 25.0793 28.1966 24.7707L28.5574 25.3796C28.7256 25.6638 29.0922 25.7574 29.3761 25.5893C29.6601 25.421 29.7539 25.0545 29.5858 24.7705L28.8753 23.5713C28.5539 23.0288 28.7329 22.3296 29.2754 22.008L30.507 21.2784C30.5608 21.2464 30.632 21.2628 30.6653 21.3189L35.729 29.8662C35.7617 29.9213 35.7437 29.9918 35.6886 30.0245Z" fill="#0054D7"/>
</svg>
