<svg width="41" height="41" viewBox="0 0 41 41" fill="none" xmlns="http://www.w3.org/2000/svg">
<path d="M40.7995 28.3373L38.5143 17.5367C38.486 17.4026 38.4123 17.2823 38.3058 17.196C38.1993 17.1097 38.0664 17.0626 37.9293 17.0627H3.06904C2.93196 17.0626 2.79902 17.1097 2.69251 17.196C2.58599 17.2823 2.51238 17.4026 2.48401 17.5367L0.200587 28.3373C0.182047 28.4244 0.183219 28.5146 0.204018 28.6012C0.224816 28.6878 0.264715 28.7687 0.320795 28.8379C0.376875 28.9072 0.447719 28.963 0.528144 29.0013C0.608569 29.0396 0.69654 29.0594 0.785624 29.0594H2.47273V40.1529C2.47268 40.2314 2.48812 40.3092 2.51816 40.3818C2.5482 40.4543 2.59225 40.5203 2.64779 40.5758C2.70333 40.6314 2.76927 40.6754 2.84185 40.7054C2.91442 40.7355 2.99221 40.7509 3.07075 40.7509H37.9293C38.0078 40.7509 38.0856 40.7355 38.1582 40.7054C38.2308 40.6754 38.2967 40.6314 38.3523 40.5758C38.4078 40.5203 38.4518 40.4543 38.4819 40.3818C38.5119 40.3092 38.5274 40.2314 38.5273 40.1529V29.0594H40.2144C40.3035 29.0594 40.3915 29.0396 40.4719 29.0013C40.5523 28.963 40.6232 28.9072 40.6792 28.8379C40.7353 28.7687 40.7752 28.6878 40.796 28.6012C40.8168 28.5146 40.818 28.4244 40.7995 28.3373ZM3.55395 18.2587H19.7614L17.7291 27.8633H1.5217L3.55395 18.2587ZM3.66707 29.0594H18.2137C18.3508 29.0594 18.4837 29.0123 18.5902 28.9259C18.6966 28.8396 18.7702 28.7192 18.7984 28.5851L19.9011 23.3747V39.5548H3.66707V29.0594ZM37.3313 39.5548H21.0972V23.3747L22.1999 28.5851C22.2282 28.7192 22.3017 28.8396 22.4082 28.9259C22.5146 29.0123 22.6475 29.0594 22.7846 29.0594H37.3313V39.5548ZM23.2692 27.8633L21.237 18.2587H37.4444L39.4766 27.8633H23.2692Z" fill="#0054D7"/>
<path d="M10.6413 36.4352H6.08783C6.0093 36.4352 5.93153 36.4507 5.85898 36.4807C5.78642 36.5108 5.7205 36.5548 5.66496 36.6104C5.60943 36.6659 5.56538 36.7318 5.53533 36.8044C5.50528 36.8769 5.48981 36.9547 5.48981 37.0332C5.48981 37.1118 5.50528 37.1895 5.53533 37.2621C5.56538 37.3346 5.60943 37.4006 5.66496 37.4561C5.7205 37.5116 5.78642 37.5557 5.85898 37.5857C5.93153 37.6158 6.0093 37.6312 6.08783 37.6312H10.6413C10.7199 37.6312 10.7976 37.6158 10.8702 37.5857C10.9428 37.5557 11.0087 37.5116 11.0642 37.4561C11.1197 37.4006 11.1638 37.3346 11.1938 37.2621C11.2239 37.1895 11.2394 37.1118 11.2394 37.0332C11.2394 36.9547 11.2239 36.8769 11.1938 36.8044C11.1638 36.7318 11.1197 36.6659 11.0642 36.6104C11.0087 36.5548 10.9428 36.5108 10.8702 36.4807C10.7976 36.4507 10.7199 36.4352 10.6413 36.4352Z" fill="#0054D7"/>
<path d="M14.3628 36.4352H13.0129C12.8543 36.4352 12.7022 36.4982 12.5901 36.6104C12.4779 36.7225 12.4149 36.8746 12.4149 37.0332C12.4149 37.1918 12.4779 37.3439 12.5901 37.4561C12.7022 37.5682 12.8543 37.6312 13.0129 37.6312H14.3628C14.5214 37.6312 14.6735 37.5682 14.7856 37.4561C14.8978 37.3439 14.9608 37.1918 14.9608 37.0332C14.9608 36.8746 14.8978 36.7225 14.7856 36.6104C14.6735 36.4982 14.5214 36.4352 14.3628 36.4352Z" fill="#0054D7"/>
<path d="M35.6226 20.1492H31.0695C30.9109 20.1492 30.7587 20.2122 30.6466 20.3243C30.5344 20.4365 30.4714 20.5886 30.4714 20.7472C30.4714 20.9058 30.5344 21.0579 30.6466 21.1701C30.7587 21.2822 30.9109 21.3452 31.0695 21.3452H35.6226C35.7812 21.3452 35.9333 21.2822 36.0455 21.1701C36.1576 21.0579 36.2206 20.9058 36.2206 20.7472C36.2206 20.5886 36.1576 20.4365 36.0455 20.3243C35.9333 20.2122 35.7812 20.1492 35.6226 20.1492Z" fill="#0054D7"/>
<path d="M28.6978 20.1492H27.348C27.1894 20.1492 27.0373 20.2122 26.9252 20.3243C26.813 20.4365 26.75 20.5886 26.75 20.7472C26.75 20.9058 26.813 21.0579 26.9252 21.1701C27.0373 21.2822 27.1894 21.3452 27.348 21.3452H28.6978C28.8565 21.3452 29.0086 21.2822 29.1207 21.1701C29.2329 21.0579 29.2959 20.9058 29.2959 20.7472C29.2959 20.5886 29.2329 20.4365 29.1207 20.3243C29.0086 20.2122 28.8565 20.1492 28.6978 20.1492Z" fill="#0054D7"/>
<path d="M20.4992 15.0386C21.974 15.0386 23.4157 14.6013 24.642 13.7819C25.8682 12.9626 26.824 11.798 27.3884 10.4354C27.9528 9.07287 28.1004 7.57355 27.8127 6.12707C27.525 4.68059 26.8148 3.35191 25.7719 2.30906C24.7291 1.2662 23.4004 0.556007 21.9539 0.268284C20.5075 -0.019439 19.0081 0.128231 17.6456 0.69262C16.283 1.25701 15.1184 2.21277 14.2991 3.43904C13.4797 4.66531 13.0424 6.10701 13.0424 7.58183C13.0446 9.5588 13.831 11.4542 15.2289 12.8521C16.6268 14.25 18.5222 15.0364 20.4992 15.0386ZM20.4992 1.32105C21.7374 1.32105 22.9479 1.68824 23.9775 2.37618C25.0071 3.06412 25.8095 4.04192 26.2834 5.18593C26.7572 6.32994 26.8812 7.58877 26.6397 8.80324C26.3981 10.0177 25.8018 11.1333 24.9262 12.0089C24.0506 12.8845 22.9351 13.4807 21.7206 13.7223C20.5061 13.9639 19.2473 13.8399 18.1033 13.366C16.9593 12.8922 15.9815 12.0897 15.2935 11.0601C14.6056 10.0305 14.2384 8.82009 14.2384 7.58183C14.2402 5.92192 14.9004 4.33052 16.0741 3.15679C17.2479 1.98305 18.8393 1.32286 20.4992 1.32105Z" fill="#0054D7"/>
<path d="M19.0297 9.94692C19.0852 10.0025 19.1511 10.0466 19.2237 10.0767C19.2963 10.1068 19.374 10.1222 19.4526 10.1222C19.5312 10.1222 19.6089 10.1068 19.6815 10.0767C19.7541 10.0466 19.82 10.0025 19.8755 9.94692L23.8546 5.96547C23.9667 5.85335 24.0297 5.7013 24.0297 5.54275C24.0297 5.3842 23.9667 5.23214 23.8546 5.12003C23.7424 5.00792 23.5904 4.94494 23.4318 4.94494C23.2733 4.94494 23.1212 5.00792 23.0091 5.12003L19.4511 8.67775L17.9892 7.21619C17.9336 7.16067 17.8677 7.11664 17.7952 7.0866C17.7227 7.05655 17.6449 7.04109 17.5664 7.04109C17.4879 7.04109 17.4102 7.05655 17.3377 7.0866C17.2651 7.11664 17.1992 7.16067 17.1437 7.21619C17.0882 7.2717 17.0442 7.3376 17.0141 7.41013C16.9841 7.48266 16.9686 7.5604 16.9686 7.6389C16.9686 7.71741 16.9841 7.79514 17.0141 7.86767C17.0442 7.9402 17.0882 8.00611 17.1437 8.06162L19.0297 9.94692Z" fill="#0054D7"/>
</svg>
